<svg class="img-fluid" id="outputsvg" xmlns="http://www.w3.org/2000/svg" style="transform: matrix(0.781463, 0, 0, 0.781463, 32.3199, -4.69979); transform-origin: 50% 50%; cursor: move; max-height: none;" width="1080" height="1080" viewBox="0 0 10800 10800"><g id="l4emnNGUehis4mJD4f1C2ly" fill="rgb(68,205,245)" style="transform: none;"><g><path id="p15c9iR05H" d="M4817 10533 c-4 -3 -7 -818 -7 -1810 0 -1594 -2 -1804 -15 -1809 -13 -5 -15 -90 -15 -681 0 -599 2 -674 15 -663 13 11 15 -96 15 -954 l0 -966 1675 0 c1484 0 1674 -2 1669 -15 -5 -11 2 -15 26 -15 28 0 31 2 20 15 -11 13 114 15 1113 15 1016 0 1125 2 1131 16 8 20 8 1108 0 1128 -6 15 -213 16 -2245 16 l-2239 0 0 540 0 540 1123 2 1122 3 3 579 c1 419 -1 583 -9 592 -10 12 -197 14 -1125 14 l-1114 0 0 1125 0 1125 2239 0 c1877 0 2240 2 2250 14 8 9 10 176 9 602 l-3 589 -2816 3 c-1549 1 -2819 -1 -2822 -5z"></path><path id="pl4yqTyt9" d="M325 10498 c-3 -7 -4 -276 -3 -598 l3 -585 543 -3 542 -2 0 -3660 0 -3660 -557 -2 -558 -3 0 -845 0 -845 1316 -3 1316 -2 6 77 c9 106 30 182 79 283 35 69 60 103 138 181 53 53 120 110 152 128 107 60 242 97 376 102 43 2 52 6 50 19 -2 9 -46 57 -99 106 -106 98 -239 239 -339 358 -82 99 -190 247 -190 264 0 6 -4 12 -10 12 -5 0 -10 6 -10 14 0 8 -4 16 -9 18 -11 4 -76 107 -85 136 -5 13 -15 22 -27 22 -11 0 -17 -5 -14 -10 4 -7 -52 -10 -159 -10 l-166 0 1 398 c1 218 5 386 9 372 18 -57 10 62 -10 134 -64 238 -108 651 -95 886 15 282 66 605 117 756 6 17 8 40 3 50 -7 18 -7 18 -15 -1 -5 -11 -9 1048 -9 2352 l-1 2373 553 2 552 3 0 595 0 595 -1698 3 c-1353 2 -1699 0 -1702 -10z"></path></g></g><g id="l46zXAGzJRpw2hN5tQFg9DX" fill="rgb(219,48,35)" style="transform: none;"><g><path id="p18SzY3nte" d="M4665 6862 c-681 -279 -1253 -762 -1645 -1387 -146 -233 -302 -577 -371 -820 -13 -44 -27 -83 -31 -86 -21 -14 -87 -345 -107 -539 -35 -336 -18 -696 49 -1035 20 -98 54 -224 60 -220 3 2 16 -33 29 -78 39 -138 129 -364 214 -537 45 -91 82 -167 82 -170 5 -34 78 -161 96 -168 5 -2 9 -10 9 -18 0 -8 5 -14 10 -14 6 0 10 -6 10 -12 1 -32 184 -265 344 -437 99 -107 287 -284 293 -277 3 3 48 -30 101 -72 323 -257 665 -443 1054 -574 209 -70 256 -78 453 -78 202 0 299 14 484 70 436 133 851 357 1201 651 140 118 377 359 484 493 418 522 674 1159 736 1829 13 140 7 216 -19 249 -35 42 -47 19 -55 -99 -34 -535 -251 -1033 -615 -1407 -187 -192 -369 -322 -616 -441 -301 -146 -557 -209 -895 -222 -518 -19 -1005 131 -1412 434 -493 367 -803 920 -869 1552 -16 159 -7 442 21 601 106 604 441 1127 938 1457 l112 75 0 669 c0 368 -1 669 -2 668 -2 0 -66 -26 -143 -57z"></path></g></g></svg>